{"title":"The Three Musketeers 2011 DVDSrip English Klam","uid":7008716,"size":1997118537,"categoryP":"video","categoryS":"movies","magnet":"?xt=urn:btih:6574c4a8b1329ecfe0f4de690fe9d74314e21f9e&amp;dn=The+Three+Musketeers+2011+DVDSrip+English+Klam&amp;tr=udp%3A%2F%2Ftracker.openbittorrent.com%3A80&amp;tr=udp%3A%2F%2Fopen.demonii.com%3A1337&amp;tr=udp%3A%2F%2Ftracker.coppersurfer.tk%3A6969&amp;tr=udp%3A%2F%2Fexodus.desync.com%3A6969","seeders":0,"leechers":0,"uploader":"Klambake","files":-1,"time":1328316836,"description":"With: Milla Jovovich, Logan Lerman and Matthew Macfadyen\n\nThe Three Musketeers speelt zich af in de 17e eeuw en gaat over D'Artagnan die in zijn strijd met Kardinaal Richelieu de samenwerking aangaat met de drie musketiers Athos, Porthos en Aramis. D'Artagnan kan de hulp goed gebruiken en samen met de drie musketiers probeert hij de snode plannen van Kardinaal Richelieu, om de koning tot aftreden te dwingen, te dwarsbomen.\n\nThe hot-headed young D'Artagnan along with three former legendary but now down on their luck Musketeers must unite and defeat a beautiful double agent and her villainous employer from seizing the French throne and engulfing Europe in war. \n &lt;a href=&quot;\nhttp://www.imdb.com/title/tt1509767&quot; rel=&quot;nofollow&quot; target=&quot;_NEW&quot;&gt;\nhttp://www.imdb.com/title/tt1509767&lt;/a&gt;\n\n------------------------ Dutch Friends ------------------------\n---------------------------------------------------------------\n- Bezoek ook eens mijn vrienden op: &lt;a href=&quot; http://www.Film-Test.nl&quot; rel=&quot;nofollow&quot; target=&quot;_NEW&quot;&gt; http://www.Film-Test.nl&lt;/a&gt; --\n----- voor mijn Nederlandse Sync. ondertitels ---- en meer ----\n------- http://www.Film-Test.nl ---- voor Films en meer -------\n---------------------------------------------------------------\n\nGeneral:\n\nComplete name                    : The Three Musketeers\\The Three Musketeers.avi\nFormat                           : AVI\nFormat/Info                      : Audio Video Interleave\nFile size                        : 1.86 GiB\nDuration                         : 1h 50mn\nOverall bit rate                 : 2 409 Kbps\n\nVideo:\n\nFormat                           : MPEG-4 Visual\nFormat profile                   : Simple@L3\nFormat settings, BVOP            : No\nFormat settings, QPel            : No\nFormat settings, GMC             : No warppoints\nFormat settings, Matrix          : Default (H.263)\nCodec ID                         : XVID\nCodec ID/Hint                    : XviD\nDuration                         : 1h 50mn\nBit rate                         : 1 950 Kbps\nWidth                            : 720 pixels\nHeight                           : 304 pixels\nDisplay aspect ratio             : 2.35:1\nFrame rate                       : 23.976 fps\nColor space                      : YUV\nChroma subsampling               : 4:2:0\nBit depth                        : 8 bits\nScan type                        : Progressive\nCompression mode                 : Lossy\nBits/(Pixel*Frame)               : 0.372\nStream size                      : 1.51 GiB (81%)\nWriting library                  : XviD 1.1.2 (UTC 2006-11-01)\n\nAudio:\n\nFormat                           : AC-3\nFormat/Info                      : Audio Coding 3\nMode extension                   : CM (complete main)\nCodec ID                         : 2000\nDuration                         : 1h 50mn\nBit rate mode                    : Constant\nBit rate                         : 448 Kbps\nChannel(s)                       : 6 channels\nChannel positions                : Front: L C R, Side: L R, LFE\nSampling rate                    : 48.0 KHz\nBit depth                        : 16 bits\nCompression mode                 : Lossy\nStream size                      : 354 MiB (19%)\nAlignment                        : Aligned on interleaves\nInterleave, duration             : 32 ms (0.77 video frame)\nInterleave, preload duration     : 320 ms","torrent":{"xt":"urn:btih:6574c4a8b1329ecfe0f4de690fe9d74314e21f9e","amp;dn":"The+Three+Musketeers+2011+DVDSrip+English+Klam","amp;tr":["udp%3A%2F%2Ftracker.openbittorrent.com%3A80","udp%3A%2F%2Fopen.demonii.com%3A1337","udp%3A%2F%2Ftracker.coppersurfer.tk%3A6969","udp%3A%2F%2Fexodus.desync.com%3A6969"],"infoHash":"6574c4a8b1329ecfe0f4de690fe9d74314e21f9e","infoHashBuffer":{"type":"Buffer","data":[101,116,196,168,177,50,158,207,224,244,222,105,15,233,215,67,20,226,31,158]},"announce":[],"urlList":[]}}